<svg width="111" height="150" viewBox="0 0 111 150" fill="none" xmlns="http://www.w3.org/2000/svg">
<g clip-path="url(#clip0_1691_8502)">
<rect x="-4.86682" y="41.5214" width="1.46112" height="123.123" transform="rotate(-90 -4.86682 41.5214)" fill="#F2ACB3"/>
<rect x="2.11145" y="72.7146" width="1.46112" height="124.555" transform="rotate(-120 2.11145 72.7146)" fill="#F2ACB3"/>
<rect x="1.98322" y="10.0226" width="1.46112" height="125.384" transform="rotate(-60 1.98322 10.0226)" fill="#F2ACB3"/>
<rect x="24.7294" y="-12.4774" width="1.46112" height="61.7428" transform="rotate(-30 24.7294 -12.4774)" fill="#F2ACB3"/>
<rect x="55.9642" y="-21.4089" width="1.46112" height="62.9304" fill="#F2ACB3"/>
<rect x="57.9415" y="40.7299" width="1.46112" height="61.4375" transform="rotate(-150 57.9415 40.7299)" fill="#F2ACB3"/>
<rect x="57.6779" y="40.7358" width="1.46112" height="49.5503" transform="rotate(-135 57.6779 40.7358)" fill="#F2ACB3"/>
<rect x="2.64838" y="55.7811" width="1.46112" height="106.083" transform="rotate(-105 2.64838 55.7811)" fill="#F2ACB3"/>
<rect x="8.27301" y="28.3246" width="1.46112" height="107.155" transform="rotate(-75 8.27301 28.3246)" fill="#F2ACB3"/>
<rect x="20.6744" y="5.698" width="1.46112" height="48.0608" transform="rotate(-45 20.6744 5.698)" fill="#F2ACB3"/>
<rect x="42.7278" y="-7.69568" width="1.46112" height="51.221" transform="rotate(-15 42.7278 -7.69568)" fill="#F2ACB3"/>
<rect x="57.6897" y="40.7197" width="1.46112" height="50.1229" transform="rotate(-165 57.6897 40.7197)" fill="#F2ACB3"/>
<path d="M26.0198 83.6513C27.0194 82.9565 28.1732 82.678 29.195 82.6416C28.7111 84.1632 28.4593 85.9137 28.4593 87.8487L28.4593 88.6621L28.4593 88.6629L28.407 156.467L23.2623 159.403V90.623C23.2623 86.6366 24.593 84.6429 26.0198 83.6513Z" fill="#F2ACB3" stroke="#F2ACB3" stroke-width="2.23055"/>
<path d="M88.5801 161.014L81.2053 156.783L81.1526 87.9651V87.1466C81.1526 84.6648 80.7214 82.5622 79.9501 80.9111V80.9091" stroke="#F2ACB3" stroke-width="2.19168"/>
<path d="M15.1223 63.4797L55.4574 40.3783L95.4611 63.6387" stroke="#F2ACB3" stroke-width="2.19168"/>
<path d="M56.1784 86.693L15.6149 64.3099L15.6149 156.307L22.8565 160.425C22.8565 160.425 22.8644 91.2742 22.8842 90.9315C23.223 84.564 26.6724 81.0943 31.3027 81.9598C32.3448 82.1556 33.4484 82.5707 34.5896 83.2207L36.4322 84.2722C42.911 87.971 48.1654 97.8904 48.1654 106.429V174.875L55.3595 178.995" stroke="#F2ACB3" stroke-width="2.19168"/>
<path d="M74.1424 82.3204L74.1426 82.3203L76.0253 81.2388L76.026 81.2384C77.2821 80.518 78.5263 80.041 79.732 79.8129L79.733 79.8128C82.452 79.3011 84.9044 80.0774 86.6939 81.9659C88.4482 83.8173 89.4725 86.6337 89.6545 90.0783L89.6544 90.0783C89.6669 90.4851 89.6733 108.251 89.6778 125.869C89.6801 134.747 89.6818 143.614 89.6828 150.262L89.684 158.293L89.6842 159.414L94.8529 156.456V64.6811L56.4746 86.7284V178.509L61.5946 175.557V106.078C61.5946 101.475 62.9965 96.5511 65.2346 92.2966C67.4679 88.0513 70.5938 84.3599 74.1424 82.3204Z" fill="#F2ACB3" stroke="#F2ACB3" stroke-width="2.23055"/>
</g>
<rect x="2.87931" y="1.94816" width="106.104" height="146.104" rx="53.0518" stroke="#F2ACB3" stroke-width="3.89632"/>
<defs>
<clipPath id="clip0_1691_8502">
<rect x="0.931152" width="110" height="150" rx="55" fill="white"/>
</clipPath>
</defs>
</svg>
