<svg width="36" height="36" viewBox="0 0 36 36" fill="none" xmlns="http://www.w3.org/2000/svg">
<g clip-path="url(#clip0_1775_9240)">
<rect x="2" y="2.08081" width="31.6318" height="31.6318" rx="15.8159" fill="none"/>
<rect x="-0.77832" y="11.1544" width="1.02991" height="37.2392" transform="rotate(-90 -0.77832 11.1544)" fill="rgb(253 198 204)"/>
<rect x="0.123535" y="21.2869" width="1.02991" height="39.0679" transform="rotate(-120 0.123535 21.2869)" fill="rgb(253 198 204)"/>
<rect x="1.29346" y="1.62756" width="1.02991" height="38.9918" transform="rotate(-60 1.29346 1.62756)" fill="rgb(253 198 204)"/>
<rect x="8.17322" y="-5.17773" width="1.02991" height="18.6744" transform="rotate(-30 8.17322 -5.17773)" fill="rgb(253 198 204)"/>
<rect x="17.6204" y="-7.87903" width="1.02991" height="19.0336" fill="rgb(253 198 204)"/>
<rect x="18.2183" y="10.9152" width="1.02991" height="18.582" transform="rotate(-150 18.2183 10.9152)" fill="rgb(253 198 204)"/>
<rect x="18.1385" y="10.9169" width="1.02991" height="14.9867" transform="rotate(-135 18.1385 10.9169)" fill="rgb(253 198 204)"/>
<rect x="-0.5625" y="16.0186" width="1.02991" height="34.215" transform="rotate(-105 -0.5625 16.0186)" fill="rgb(253 198 204)"/>
<rect x="3.1958" y="7.16309" width="1.02991" height="33.6352" transform="rotate(-75 3.1958 7.16309)" fill="rgb(253 198 204)"/>
<rect x="6.94678" y="0.319458" width="1.02991" height="14.5362" transform="rotate(-45 6.94678 0.319458)" fill="rgb(253 198 204)"/>
<rect x="13.6169" y="-3.73145" width="1.02991" height="15.492" transform="rotate(-15 13.6169 -3.73145)" fill="rgb(253 198 204)"/>
<rect x="18.1422" y="10.9121" width="1.02991" height="15.1599" transform="rotate(-165 18.1422 10.9121)" fill="rgb(253 198 204)"/>
<path d="M9.48382 45.9205L7.92777 46.8085V26.0055C7.92777 24.7998 8.33026 24.1968 8.76178 23.8969C9.06414 23.6868 9.41309 23.6025 9.72215 23.5915C9.5758 24.0518 9.49961 24.5812 9.49961 25.1665L9.49961 25.4125L9.49961 25.4127L9.48382 45.9205Z" fill="rgb(253 198 204)" stroke="#171717" stroke-width="0.674641"/>
<path d="M27.6835 47.2956L25.4529 46.0159L25.437 25.2017V24.9541C25.437 24.2035 25.3066 23.5675 25.0733 23.0681V23.0675" stroke="rgb(253 198 204)" stroke-width="0.662883"/>
<path d="M5.46582 17.7958L17.6653 10.8087L29.7646 17.8439" stroke="rgb(253 198 204)" stroke-width="0.662883"/>
<path d="M17.6357 52.734L15.4598 51.488V30.7862C15.4598 28.2036 13.8706 25.2034 11.9111 24.0847L11.3538 23.7667C11.0086 23.57 10.6748 23.4445 10.3596 23.3853C8.95915 23.1235 7.91586 24.1729 7.81339 26.0988C7.8074 26.2025 7.805 47.1174 7.805 47.1174L5.61475 45.8719V18.047L17.8834 24.8169" stroke="rgb(253 198 204)" stroke-width="0.662883"/>
<path d="M28.0173 46.8117L29.5806 45.9168V18.1592L17.973 24.8275V52.5869L19.5215 51.6942V30.68C19.5215 29.2877 19.9455 27.7985 20.6225 26.5117C21.2979 25.2277 22.2434 24.1112 23.3167 23.4943L23.3167 23.4943L23.8861 23.1672L23.8864 23.167C24.2663 22.9492 24.6426 22.8049 25.0073 22.7359L25.0076 22.7359C25.8299 22.5811 26.5717 22.8159 27.1129 23.3871C27.6435 23.9471 27.9533 24.7989 28.0084 25.8407L28.0083 25.8407C28.0121 25.9637 28.0141 31.337 28.0154 36.6659C28.0161 39.3511 28.0166 42.033 28.0169 44.0436L28.0173 46.4725L28.0173 46.8117Z" fill="rgb(253 198 204)" stroke="rgb(253 198 204)" stroke-width="0.674641"/>
</g>
<rect x="1" y="1.08081" width="33.6318" height="33.6318" rx="16.8159" stroke="rgb(253 198 204)" stroke-width="2"/>
<defs>
<clipPath id="clip0_1775_9240">
<rect x="2" y="2.08081" width="31.6318" height="31.6318" rx="15.8159" fill="white"/>
</clipPath>
</defs>
</svg>
