<svg width="161" height="127" viewBox="0 0 161 127" fill="none" xmlns="http://www.w3.org/2000/svg">
<path fill-rule="evenodd" clip-rule="evenodd" d="M80.2878 0L78.1213 12.0868C60.2629 12.3218 43.9716 17.7019 31.9701 26.4691C19.9075 35.281 11.9586 47.7211 11.6917 61.8465L0.243164 63.3695L11.7507 64.8428C12.5393 78.337 20.344 90.2004 31.9701 98.6935C43.9117 107.417 60.1003 112.787 77.8539 113.072L80.2878 126.739L82.4417 113.032C99.5624 112.458 115.135 107.152 126.715 98.6934C138.279 90.2459 146.062 78.4638 146.921 65.0592L160.332 63.3695L146.988 61.6225C146.642 47.5897 138.713 35.2344 126.715 26.4691C115.082 17.9713 99.419 12.6557 82.2052 12.123L80.2878 0ZM15.708 61.3122C16.6112 36.6874 43.7193 16.8366 77.402 16.1L76.1839 22.8956C57.6192 24.742 42.7943 39.4183 40.5576 58.0065L15.708 61.3122ZM40.6559 68.5436L15.7966 65.3608C17.7218 89.2185 44.269 108.24 77.1388 109.056L76.0394 102.883C57.7948 101.001 43.1919 86.724 40.6559 68.5436ZM84.0329 102.905L83.0744 109.005C115.14 107.651 140.84 88.9588 142.871 65.5695L119.647 68.4955C117.12 86.7733 102.398 101.116 84.0329 102.905ZM119.745 58.0562L142.968 61.0963C141.931 36.9522 115.7 17.4483 82.8417 16.1479L83.9057 22.8756C102.584 24.6346 117.521 39.3754 119.745 58.0562Z" fill="white"/>
</svg>
