<svg width="231" height="182" viewBox="0 0 231 182" fill="none" xmlns="http://www.w3.org/2000/svg">
<g filter="url(#filter0_d_978_46)">
<ellipse cx="115.5" cy="91" rx="82" ry="106.5" transform="rotate(-90 115.5 91)" fill="#3F2E32"/>
</g>
<path fill-rule="evenodd" clip-rule="evenodd" d="M116.288 28L114.121 40.0868C96.2629 40.3218 79.9716 45.7019 67.9701 54.4691C55.9075 63.281 47.9586 75.7211 47.6917 89.8465L36.2432 91.3695L47.7507 92.8428C48.5393 106.337 56.344 118.2 67.9701 126.693C79.9117 135.417 96.1003 140.787 113.854 141.072L116.288 154.739L118.442 141.032C135.562 140.458 151.135 135.152 162.715 126.693C174.279 118.246 182.062 106.464 182.921 93.0592L196.332 91.3695L182.988 89.6225C182.642 75.5897 174.713 63.2344 162.715 54.4691C151.082 45.9713 135.419 40.6557 118.205 40.123L116.288 28ZM51.708 89.3122C52.6112 64.6874 79.7193 44.8366 113.402 44.1L112.184 50.8956C93.6192 52.742 78.7943 67.4183 76.5576 86.0065L51.708 89.3122ZM76.6559 96.5436L51.7966 93.3608C53.7218 117.218 80.269 136.24 113.139 137.056L112.039 130.883C93.7948 129.001 79.1919 114.724 76.6559 96.5436ZM120.033 130.905L119.074 137.005C151.14 135.651 176.84 116.959 178.871 93.5695L155.647 96.4955C153.12 114.773 138.398 129.116 120.033 130.905ZM155.745 86.0562L178.968 89.0963C177.931 64.9522 151.7 45.4483 118.842 44.1479L119.906 50.8756C138.584 52.6346 153.521 67.3754 155.745 86.0562Z" fill="url(#paint0_linear_978_46)"/>
<path fill-rule="evenodd" clip-rule="evenodd" d="M116.288 28L114.121 40.0868C96.2629 40.3218 79.9716 45.7019 67.9701 54.4691C55.9075 63.281 47.9586 75.7211 47.6917 89.8465L36.2432 91.3695L47.7507 92.8428C48.5393 106.337 56.344 118.2 67.9701 126.693C79.9117 135.417 96.1003 140.787 113.854 141.072L116.288 154.739L118.442 141.032C135.562 140.458 151.135 135.152 162.715 126.693C174.279 118.246 182.062 106.464 182.921 93.0592L196.332 91.3695L182.988 89.6225C182.642 75.5897 174.713 63.2344 162.715 54.4691C151.082 45.9713 135.419 40.6557 118.205 40.123L116.288 28ZM51.708 89.3122C52.6112 64.6874 79.7193 44.8366 113.402 44.1L112.184 50.8956C93.6192 52.742 78.7943 67.4183 76.5576 86.0065L51.708 89.3122ZM76.6559 96.5436L51.7966 93.3608C53.7218 117.218 80.269 136.24 113.139 137.056L112.039 130.883C93.7948 129.001 79.1919 114.724 76.6559 96.5436ZM120.033 130.905L119.074 137.005C151.14 135.651 176.84 116.959 178.871 93.5695L155.647 96.4955C153.12 114.773 138.398 129.116 120.033 130.905ZM155.745 86.0562L178.968 89.0963C177.931 64.9522 151.7 45.4483 118.842 44.1479L119.906 50.8756C138.584 52.6346 153.521 67.3754 155.745 86.0562Z" fill="url(#paint1_radial_978_46)" fill-opacity="0.2"/>
<defs>
<filter id="filter0_d_978_46" x="0" y="0" width="231" height="182" filterUnits="userSpaceOnUse" color-interpolation-filters="sRGB">
<feFlood flood-opacity="0" result="BackgroundImageFix"/>
<feColorMatrix in="SourceAlpha" type="matrix" values="0 0 0 0 0 0 0 0 0 0 0 0 0 0 0 0 0 0 127 0" result="hardAlpha"/>
<feOffset/>
<feGaussianBlur stdDeviation="4.5"/>
<feComposite in2="hardAlpha" operator="out"/>
<feColorMatrix type="matrix" values="0 0 0 0 0.384314 0 0 0 0 0.309804 0 0 0 0 0.329412 0 0 0 0.36 0"/>
<feBlend mode="normal" in2="BackgroundImageFix" result="effect1_dropShadow_978_46"/>
<feBlend mode="normal" in="SourceGraphic" in2="effect1_dropShadow_978_46" result="shape"/>
</filter>
<linearGradient id="paint0_linear_978_46" x1="111.088" y1="44.0605" x2="90.6313" y2="209.614" gradientUnits="userSpaceOnUse">
<stop stop-color="#FF89A5"/>
<stop offset="0.973236" stop-color="#30FCB3"/>
</linearGradient>
<radialGradient id="paint1_radial_978_46" cx="0" cy="0" r="1" gradientUnits="userSpaceOnUse" gradientTransform="translate(172.54 110.128) rotate(26.9994) scale(98.2121 79.6296)">
<stop offset="0.307292" stop-color="#6100FF"/>
<stop offset="1" stop-color="white"/>
</radialGradient>
</defs>
</svg>
